<?xml version="1.0" encoding="UTF-8"?><svg id="Capa_1" xmlns="http://www.w3.org/2000/svg" viewBox="0 0 12 12"><defs><style>.cls-1{fill:#fff;}</style></defs><path class="cls-1" d="M10.65,6.01c-.01,2.57-2.13,4.63-4.66,4.62-2.58,0-4.66-2.15-4.64-4.66.02-2.51,2.08-4.62,4.66-4.61,2.61.02,4.62,2.1,4.64,4.65ZM2.06,6c0,2.14,1.74,3.94,3.95,3.94,2.19,0,3.94-1.79,3.94-3.94,0-2.14-1.7-3.95-3.97-3.95-2.18,0-3.92,1.81-3.92,3.95Z"/><path class="cls-1" d="M6.58,6.91h-1.17c-.04-1.13-.09-2.25-.13-3.37.09-.03,1.26-.03,1.43,0-.04,1.12-.09,2.25-.13,3.38Z"/><path class="cls-1" d="M5.99,8.48c-.19,0-.35-.06-.5-.17-.31-.24-.3-.69.02-.92.28-.2.67-.2.95-.01.35.24.36.7.02.95-.15.11-.31.15-.49.15Z"/></svg>
