<svg width="123" height="108" viewBox="0 0 123 108" fill="none" xmlns="http://www.w3.org/2000/svg">
<path d="M20.1892 46.0693L27.1692 42.3593C27.1892 42.3493 27.2092 42.3393 27.2392 42.3293C27.8992 41.9893 28.6192 41.9493 29.2692 42.1593C29.9292 42.3593 30.5192 42.8193 30.8892 43.4693C31.0292 43.6893 31.0892 43.8693 31.1492 44.0493C31.1592 44.0793 31.1692 44.1193 31.1792 44.1493C32.5892 49.7893 33.5892 55.2493 34.2292 60.5593C34.8692 65.8493 35.1592 71.0193 35.1492 76.0893C35.1292 80.8293 34.8492 85.4593 34.3392 89.9793C33.8892 93.9793 33.2592 97.9093 32.4792 101.799L90.2592 101.729C89.6192 97.7993 89.4692 97.3093 89.0692 93.3293L94.5492 94.3093C95.0392 99.0793 95.2892 99.3893 96.1392 104.139C96.1492 104.169 96.1492 104.209 96.1492 104.239C96.1692 104.349 96.1892 104.459 96.1892 104.619C96.1892 105.379 95.8792 106.059 95.3792 106.559C94.8792 107.059 94.1892 107.369 93.4392 107.369V107.359L29.0292 107.429V107.439C28.7992 107.439 28.6292 107.439 28.3392 107.369H28.3192C27.5892 107.199 26.9892 106.739 26.6092 106.159C26.2292 105.569 26.0692 104.829 26.2392 104.099V104.089C26.2492 104.069 26.2492 104.049 26.2592 104.019C27.2492 99.5593 28.0492 95.0293 28.6092 90.3893C29.1692 85.7293 29.4892 81.0093 29.4992 76.2193V76.2093C29.5192 71.6793 29.2692 67.0193 28.7092 62.2093C28.2092 57.9193 27.4692 53.5193 26.4592 49.0093L20.6792 52.0993H20.6692C20.0792 52.4093 19.4092 52.4893 18.7892 52.3593C18.1792 52.2293 17.5992 51.8893 17.1892 51.3493L0.709219 29.8393C0.609219 29.7393 0.519219 29.6193 0.439219 29.4993C0.429219 29.4793 0.409219 29.4493 0.399219 29.4293C0.0692189 28.8993 -0.0507811 28.2793 0.0192189 27.6893C0.0892189 27.0793 0.359219 26.4793 0.809219 26.0393C0.929219 25.9193 1.05922 25.8093 1.20922 25.7093C1.22922 25.6893 1.25922 25.6793 1.27922 25.6693L37.7992 0.519321C37.8692 0.469321 37.9492 0.429321 38.0192 0.399321C38.6892 0.0793208 39.3992 -0.0806792 40.0992 0.0693208C40.7992 0.219321 41.3992 0.639321 41.8392 1.42932C43.9592 5.19932 46.2092 8.31932 48.5292 10.7893C50.8792 13.2893 53.2992 15.1093 55.7292 16.2693C56.8192 16.7893 57.8892 17.1593 58.9392 17.3993C60.0092 17.6393 61.0692 17.7393 62.1292 17.6993C63.1792 17.6693 64.2292 17.4993 65.2692 17.1993C66.2892 16.8993 67.2992 16.4693 68.3192 15.8793C68.3492 15.8593 68.3892 15.8393 68.4192 15.8293C70.5192 14.6293 72.5592 12.8493 74.5092 10.4793C76.4492 8.11932 78.2792 5.16932 79.9592 1.61932C79.9792 1.58932 79.9892 1.54932 80.0092 1.51932L80.0792 1.37932C80.0992 1.33932 80.1192 1.29932 80.1392 1.26932C80.1592 1.22932 80.1992 1.17932 80.2292 1.12932C80.6492 0.549321 81.2592 0.179321 81.9192 0.0493208C81.9392 0.0493208 81.9692 0.0393208 81.9892 0.0393208C82.6192 -0.0706792 83.2992 0.0493208 83.8792 0.409321C83.8992 0.419321 83.9392 0.449321 83.9792 0.479321L121.639 25.5393C121.709 25.5893 121.779 25.6393 121.839 25.6993L121.869 25.7293C122.419 26.1893 122.749 26.8193 122.839 27.4793C122.939 28.1693 122.769 28.8993 122.329 29.5093L122.309 29.5393L105.699 51.3493C105.319 51.8693 104.789 52.2193 104.199 52.3693C103.599 52.5293 102.949 52.4793 102.339 52.2093L102.329 52.1993L95.6292 49.1293C94.8292 53.2393 94.3692 54.8193 93.9892 58.8393L88.9392 55.9293C89.4492 50.2593 89.8292 50.0093 91.0692 44.4493C91.2392 43.7093 91.6792 43.0993 92.2692 42.7193C92.8692 42.3293 93.6092 42.1793 94.3592 42.3493C94.4292 42.3593 94.4892 42.3793 94.5492 42.4093C94.6992 42.4593 94.8392 42.5093 94.9392 42.5593L94.9592 42.5693L102.729 46.1493L116.239 28.4093L83.6092 6.71932C81.9692 9.76932 80.1792 12.3993 78.2792 14.5893C76.0192 17.2093 73.5992 19.2193 71.0892 20.6293C69.6992 21.4093 68.2692 22.0093 66.8292 22.4193C65.3592 22.8393 63.8592 23.0793 62.3392 23.1393H62.2892C60.8092 23.1793 59.3192 23.0293 57.8392 22.6993C56.3592 22.3693 54.8792 21.8593 53.3992 21.1693C50.5692 19.8393 47.7992 17.8293 45.1392 15.1293C42.8492 12.8093 40.6392 9.96932 38.5692 6.63932L6.71922 28.5693L20.1892 46.0693ZM55.7092 47.2193C61.4092 51.2993 70.5492 46.9193 74.1492 54.0293C75.0992 55.9193 75.3092 58.4993 74.4492 60.5493C74.0992 61.3693 73.5892 62.1093 72.8992 62.6693C72.5892 62.9193 72.2492 63.1393 71.8692 63.3193C67.1792 65.6493 62.2892 62.3893 59.6892 58.4593C57.3092 54.8393 56.2692 50.3193 55.7092 47.2193ZM84.6392 78.4293C87.8192 75.8893 90.2792 72.9693 91.9592 69.6293L112.389 91.1793C113.929 92.6393 114.809 93.8793 113.509 96.1193C112.859 96.7793 112.189 97.1293 111.469 97.1793C110.759 97.2293 110.009 96.9693 109.219 96.4093L84.6392 78.4293ZM73.8592 65.9293C75.2392 65.1893 77.1292 63.3693 77.5692 61.3793L90.3692 68.3993C88.5192 72.0693 86.1692 75.2193 82.9492 77.4593C79.5792 72.9393 77.6892 70.2093 73.8592 65.9293ZM96.1492 104.219C96.1492 104.259 96.1592 104.309 96.1592 104.349C96.1592 104.309 96.1592 104.229 96.1492 104.219Z" fill="white"/>
</svg>
