<svg width="12" height="12" viewBox="0 0 12 12" fill="none" xmlns="http://www.w3.org/2000/svg">
<path d="M0 10.3726V2.77803C3.25361e-05 2.34646 0.17161 1.93257 0.476779 1.62741C0.781971 1.32225 1.19582 1.15063 1.62741 1.15063H5.42469C5.72424 1.15063 5.96709 1.39355 5.96716 1.6931C5.96716 1.99269 5.72428 2.23556 5.42469 2.23556H1.62741C1.48356 2.23556 1.34559 2.2928 1.24386 2.39449C1.14216 2.49619 1.08497 2.63421 1.08494 2.77803V10.3726C1.08494 10.5165 1.14213 10.6547 1.24386 10.7564C1.34559 10.8581 1.48357 10.9151 1.62741 10.9151H9.22197C9.3658 10.9151 9.50378 10.8581 9.60551 10.7564C9.70724 10.6547 9.76444 10.5165 9.76444 10.3726V6.57531C9.7645 6.27577 10.0073 6.03284 10.3069 6.03284C10.6065 6.03284 10.8493 6.27577 10.8494 6.57531V10.3726C10.8494 10.8042 10.6778 11.2183 10.3726 11.5235C10.0674 11.8286 9.65355 12 9.22197 12H1.62741C1.19582 12 0.78197 11.8286 0.476779 11.5235C0.171581 11.2183 0 10.8042 0 10.3726ZM10.9151 1.6931C10.915 1.53185 10.8511 1.37724 10.7371 1.2632C10.623 1.14912 10.4682 1.08494 10.3069 1.08494C10.1456 1.08494 9.99082 1.14912 9.87674 1.2632L4.82951 6.31017L4.54265 7.45735L5.68956 7.17049L10.7371 2.12326C10.8511 2.00919 10.9151 1.85439 10.9151 1.6931ZM12 1.6931C12 2.14217 11.8217 2.57307 11.5041 2.89061L6.3507 8.04406C6.28121 8.11352 6.19411 8.16272 6.0988 8.18656L3.92892 8.72903C3.7441 8.77524 3.54847 8.72121 3.41374 8.58653C3.27902 8.45181 3.22479 8.25618 3.27097 8.07134L3.81344 5.90147L3.8235 5.86597C3.84987 5.78446 3.89538 5.71013 3.95621 5.6493L9.10966 0.49585C9.42719 0.178349 9.85786 0 10.3069 0C10.7559 0 11.1866 0.178349 11.5041 0.49585C11.8217 0.813361 12 1.24407 12 1.6931Z" fill="#0FC5E5"/>
</svg>
