<svg width="12" height="10" viewBox="0 0 12 10" fill="none" xmlns="http://www.w3.org/2000/svg">
<path d="M10.9521 3.21373C10.9521 2.92157 10.8911 2.63218 10.7725 2.36227C10.654 2.09239 10.4801 1.84719 10.2611 1.64065L10.2609 1.64041C10.0419 1.43378 9.78202 1.26981 9.49593 1.15797C9.20981 1.04613 8.90306 0.988548 8.59336 0.988543C8.28364 0.988543 7.97691 1.04612 7.69079 1.15797C7.40468 1.2698 7.14479 1.43378 6.92585 1.64041H6.9256L6.37019 2.16437C6.16557 2.35735 5.8339 2.35738 5.6293 2.16437L5.07389 1.64041C4.63163 1.22322 4.03182 0.988807 3.40639 0.988784C2.7809 0.988784 2.18091 1.22318 1.73863 1.64041C1.29634 2.05765 1.04788 2.62366 1.04788 3.21373C1.0479 3.80375 1.29638 4.36958 1.73863 4.78681L5.99974 8.80662L10.2609 4.78681H10.2611C10.4801 4.58028 10.654 4.33508 10.7725 4.06519C10.8911 3.79529 10.9521 3.50588 10.9521 3.21373ZM12 3.21373C12 3.6357 11.9118 4.05354 11.7406 4.44337C11.5694 4.83323 11.3181 5.1874 11.0017 5.48574L11.002 5.48598L6.37019 9.85526C6.16557 10.0482 5.83389 10.0483 5.6293 9.85526L0.99774 5.48598C0.358951 4.88336 1.77316e-05 4.06595 0 3.21373C0 2.36148 0.358936 1.54411 0.99774 0.941481C1.63654 0.338858 2.50299 0.000241343 3.40639 0.000241343C4.30976 0.000264125 5.17625 0.338871 5.81503 0.941481L5.99974 1.11573L6.18471 0.941481L6.24457 0.886213C6.54792 0.613676 6.9022 0.396172 7.28964 0.244722C7.70294 0.0831714 8.14599 0 8.59336 0C9.04071 4.89114e-06 9.48379 0.0831762 9.89707 0.244722C10.3103 0.406266 10.6858 0.643028 11.002 0.941481H11.0017C11.3182 1.23983 11.5693 1.59396 11.7406 1.98384C11.9118 2.37372 12 2.7917 12 3.21373Z" fill="white"/>
</svg>
