<?xml version="1.0" encoding="UTF-8"?><svg id="Capa_1" xmlns="http://www.w3.org/2000/svg" viewBox="0 0 12 12"><defs><style>.cls-1{fill:#fff;}</style></defs><path class="cls-1" d="M5.96,3.95c.55,0,1.11,0,1.66,0,.07,0,.13.02.18.08.12.13.25.26.38.38.45.4.82.88,1.14,1.39.39.63.73,1.29.95,1.99.15.48.25.98.22,1.49,0,.16-.03.32-.07.47-.1.42-.34.74-.72.96-.33.19-.69.3-1.06.37-.74.14-1.5.14-2.25.15-.55,0-1.1,0-1.65-.02-.52-.02-1.04-.06-1.54-.18-.23-.06-.47-.13-.69-.22-.56-.23-.88-.66-.98-1.26-.07-.41-.04-.82.03-1.22.28-1.42.92-2.66,1.89-3.73.19-.21.41-.38.62-.57.06-.06.13-.08.21-.07.55,0,1.11,0,1.66,0h0Z"/><path class="cls-1" d="M5.94,2.67c-.54,0-1.08,0-1.62,0-.08,0-.15-.02-.21-.08-.25-.24-.49-.49-.67-.79-.07-.12-.13-.25-.17-.38-.09-.34.06-.59.47-.64.27-.03.54.01.79.12.2.08.39.17.58.26.19.08.38.16.58.23.19.07.38.05.56-.01.19-.07.38-.15.57-.24.25-.11.5-.24.77-.31.21-.05.42-.07.63-.01.3.08.43.3.37.6-.04.18-.11.33-.21.49-.16.27-.37.5-.6.71-.05.05-.11.07-.19.07-.55,0-1.1,0-1.65,0Z"/><path class="cls-1" d="M5.97,2.99c.51,0,1.03,0,1.54,0,.06,0,.13,0,.19.03.12.05.2.18.19.31-.01.13-.1.25-.23.28-.05.01-.1.02-.15.02-1.03,0-2.05,0-3.08,0-.03,0-.06,0-.09,0-.19-.03-.29-.16-.29-.34,0-.17.17-.3.33-.3.36,0,.72,0,1.08,0,.17,0,.34,0,.51,0h0Z"/></svg>
