<?xml version="1.0" encoding="UTF-8"?><svg id="Capa_1" xmlns="http://www.w3.org/2000/svg" viewBox="0 0 12 12"><defs><style>.cls-1{fill:#fff;}</style></defs><path class="cls-1" d="M4.79,2.91h2.41c0,.34,0,.66,0,.98,0,.16.04.25.2.32,1.57.66,2.52,2.21,2.37,3.82-.16,1.71-1.37,3.04-3.05,3.4-1.84.39-3.75-.74-4.33-2.56-.59-1.82.32-3.86,2.07-4.6.27-.11.36-.24.34-.52-.03-.26,0-.53,0-.84ZM5.98,10.82c1.61.02,3.04-1.33,3.1-2.93,0-.1-.04-.25-.11-.29-.99-.62-2.01-.81-3.08-.18-.42.25-.88.38-1.35.29-.39-.07-.76-.23-1.12-.39-.42-.19-.5-.16-.51.31-.05,1.74,1.32,3.17,3.07,3.19Z"/><path class="cls-1" d="M6,2.56c-.48,0-.96,0-1.44,0-.21,0-.29-.08-.29-.29,0-.85-.09-.75.72-.75.79,0,1.59,0,2.38,0,.26,0,.36.09.35.35-.01.79.06.68-.67.69-.35,0-.71,0-1.06,0Z"/><path class="cls-1" d="M6.86,1.17h-1.69s-.03-.04-.03-.06q-.04-.62.57-.62c.26,0,.52,0,.77,0,.36,0,.37.02.37.37,0,.09,0,.19,0,.31Z"/></svg>
