<svg width="40" height="40" viewBox="0 0 40 40" fill="none" xmlns="http://www.w3.org/2000/svg">
<path d="M0 6C0 4.4087 0.632594 2.88303 1.75781 1.75781C2.88303 0.632594 4.4087 0 6 0H28C28.5304 0 29.039 0.210865 29.4141 0.585938L39.4141 10.5859C39.7891 10.961 40 11.4696 40 12V34C40 35.5913 39.3674 37.117 38.2422 38.2422C37.117 39.3674 35.5913 40 34 40H6C4.4087 40 2.88303 39.3674 1.75781 38.2422C0.632595 37.117 0 35.5913 0 34V6ZM12 36H28V24H12V36ZM4 34C4 34.5304 4.21086 35.039 4.58594 35.4141C4.96101 35.7891 5.46957 36 6 36H8V22C8 20.8954 8.89543 20 10 20H30C31.1046 20 32 20.8954 32 22V36H34C34.5304 36 35.039 35.7891 35.4141 35.4141C35.7891 35.039 36 34.5304 36 34V12.8281L27.1719 4H12V10H26C27.1046 10 28 10.8954 28 12C28 13.1046 27.1046 14 26 14H10C8.89543 14 8 13.1046 8 12V4H6C5.46957 4 4.96101 4.21086 4.58594 4.58594C4.21086 4.96101 4 5.46957 4 6V34Z" fill="#0FC5E5"/>
</svg>
