<svg width="13" height="13" viewBox="0 0 13 13" fill="none" xmlns="http://www.w3.org/2000/svg">
<path d="M10.1464 5.86588C10.1464 3.50182 8.22994 1.58537 5.86588 1.58537C3.50182 1.58537 1.58537 3.50182 1.58537 5.86588C1.58537 8.22994 3.50182 10.1464 5.86588 10.1464C7.01892 10.1464 8.06447 9.68944 8.83412 8.94807C8.85096 8.92745 8.86939 8.90785 8.88862 8.88862C8.90785 8.86939 8.92745 8.85096 8.94807 8.83412C9.68944 8.06447 10.1464 7.01892 10.1464 5.86588ZM11.7318 5.86588C11.7318 7.19985 11.2853 8.42895 10.5353 9.41439L12.7678 11.6469C13.0774 11.9565 13.0774 12.4583 12.7678 12.7678C12.4583 13.0774 11.9565 13.0774 11.6469 12.7678L9.41439 10.5353C8.42895 11.2853 7.19985 11.7318 5.86588 11.7318C2.62624 11.7318 0 9.10552 0 5.86588C0 2.62624 2.62624 0 5.86588 0C9.10552 0 11.7318 2.62624 11.7318 5.86588Z" fill="#0FC5E5"/>
</svg>
