<?xml version="1.0" encoding="UTF-8"?><svg id="Capa_1" xmlns="http://www.w3.org/2000/svg" viewBox="0 0 12 12"><defs><style>.cls-1{fill:#fff;}</style></defs><path class="cls-1" d="M5.6,8.05c.04.12.09.22.12.32.06.3-.03.55-.24.76-.12.13-.24.25-.36.37-.15.15-.31.15-.46,0-.15-.16-.3-.32-.45-.48-.03-.03-.05-.06-.07-.1-.03.03-.05.04-.06.06-.24.25-.49.51-.73.76-.07.07-.1.15-.11.25-.01.46-.3.8-.75.9-.25.05-.5.05-.74-.04-.4-.16-.61-.47-.64-.89-.02-.19-.01-.39.04-.58.1-.42.5-.71.89-.7.05,0,.1-.01.14-.05.28-.29.57-.58.86-.88-.03-.03-.06-.07-.09-.1-.17-.18-.34-.37-.51-.55-.13-.14-.13-.29,0-.41.14-.14.28-.28.43-.42.15-.14.34-.21.55-.19.09,0,.18.03.27.06.03,0,.06.02.1.04.14-.17.28-.34.41-.51,1.1-1.37,2.19-2.74,3.28-4.11.02-.03.05-.06.07-.09.07-.08.16-.13.26-.14.29-.03.58-.05.86-.08.31-.03.61-.06.92-.09.22-.02.44-.04.65-.05.11,0,.22-.02.33-.03.22,0,.35.15.32.36-.13.87-.26,1.75-.39,2.62-.02.11-.07.19-.16.26-1.56,1.22-3.12,2.44-4.68,3.67-.03.02-.05.04-.07.06ZM10.28,1.69c-.05,0-.1,0-.15,0-.19.02-.39.03-.58.05-.18.02-.35.03-.53.05-.32.03-.64.06-.96.09-.09,0-.14.03-.2.1-1.09,1.37-2.19,2.74-3.28,4.12-.13.16-.25.32-.38.48.09.1.18.2.28.3.03-.03.06-.05.08-.07,1.14-1.11,2.28-2.22,3.42-3.33.03-.03.07-.06.11-.09.09-.06.19-.06.29,0,.1.06.14.14.14.25,0,.12-.07.19-.15.27-1.14,1.11-2.29,2.23-3.43,3.34-.02.02-.04.04-.06.07.11.11.21.22.32.34.04-.03.07-.05.1-.07,1.52-1.19,3.04-2.38,4.56-3.57.07-.05.1-.11.11-.19.08-.56.16-1.13.25-1.69.02-.13.04-.27.06-.41ZM3.03,6.89c.63.68,1.24,1.35,1.88,2.02.05-.06.08-.11.12-.15.15-.15.16-.28.01-.43-.26-.28-.53-.57-.79-.85-.23-.24-.45-.49-.68-.73-.12-.13-.25-.13-.38-.01-.05.05-.1.09-.17.15ZM1.68,9.77s0,0,.01,0c0,.05,0,.1,0,.15.02.18.1.32.28.39.15.05.31.05.46,0,.22-.07.3-.37.15-.54-.13-.15-.28-.3-.41-.45-.07-.08-.17-.08-.26-.05-.1.05-.17.13-.19.24-.02.08-.03.17-.04.25ZM2.95,9.31c.26-.27.52-.54.78-.81-.11-.11-.21-.22-.32-.33-.26.27-.52.53-.78.8.11.12.21.23.32.34Z"/></svg>
