<?xml version="1.0" encoding="UTF-8"?><svg id="Capa_1" xmlns="http://www.w3.org/2000/svg" viewBox="0 0 12 12"><defs><style>.cls-1{fill:#fff;}</style></defs><path class="cls-1" d="M8.59,4.63c.09,0,.18,0,.27,0,1.01.05,1.79.51,2.29,1.4.89,1.58.02,3.56-1.74,4-.2.05-.4.08-.61.08-1.42,0-2.84,0-4.26,0-.95,0-1.79-.31-2.52-.9-.81-.66-1.3-1.5-1.47-2.53C.22,4.61,1.47,2.64,3.48,2.06c.46-.13.93-.19,1.4-.17,1.62.09,3.05,1.1,3.64,2.58.02.05.04.1.07.16ZM6.61,9.19h0c.69,0,1.38,0,2.07,0,.15,0,.31,0,.46-.04.99-.22,1.61-1.22,1.37-2.21-.2-.81-.92-1.38-1.76-1.39-.17,0-.34,0-.52,0-.2,0-.33-.09-.42-.26-.03-.05-.04-.11-.06-.16-.47-1.62-2.14-2.61-3.8-2.24-1.88.43-2.76,2.14-2.49,3.66.2,1.12.84,1.91,1.87,2.38.4.18.83.26,1.28.25.66,0,1.32,0,1.99,0Z"/><path class="cls-1" d="M8.04,7.39c-.26,0-.47-.21-.46-.47,0-.25.22-.46.47-.46.26,0,.47.21.47.47,0,.27-.21.47-.48.47Z"/><path class="cls-1" d="M3.96,7.39c-.27,0-.47-.2-.47-.47,0-.25.21-.46.46-.46.26,0,.47.21.48.47,0,.27-.24.48-.47.46Z"/><path class="cls-1" d="M6,7.39c-.27,0-.47-.2-.47-.47,0-.26.22-.46.47-.46.26,0,.46.21.46.47,0,.26-.23.48-.47.46Z"/></svg>
