<svg width="31" height="34" viewBox="0 0 31 34" fill="none" xmlns="http://www.w3.org/2000/svg">
<path d="M26.667 31.75V28.417C26.667 27.1131 26.1485 25.8625 25.2266 24.9404C24.3045 24.0184 23.054 23.5 21.75 23.5H8.41699C7.11301 23.5 5.86248 24.0184 4.94043 24.9404C4.01838 25.8625 3.5 27.113 3.5 28.417V31.75C3.5 32.7165 2.7165 33.5 1.75 33.5C0.783502 33.5 0 32.7165 0 31.75V28.417C0 26.1848 0.886413 24.0433 2.46484 22.4648C4.04327 20.8864 6.18475 20 8.41699 20H21.75C23.9821 20 26.1228 20.8866 27.7012 22.4648C29.2796 24.0433 30.167 26.1848 30.167 28.417V31.75C30.167 32.7164 29.3833 33.4998 28.417 33.5C27.4505 33.5 26.667 32.7165 26.667 31.75ZM20 8.41699C20 5.70159 17.7984 3.5 15.083 3.5C12.3678 3.50018 10.167 5.7017 10.167 8.41699C10.1672 11.1321 12.3679 13.3328 15.083 13.333C17.7983 13.333 19.9998 11.1322 20 8.41699ZM23.5 8.41699C23.4998 13.0652 19.7313 16.833 15.083 16.833C10.4349 16.8328 6.66717 13.0651 6.66699 8.41699C6.66699 3.7687 10.4348 0.000176263 15.083 0C19.7314 0 23.5 3.7686 23.5 8.41699Z" fill="white"/>
</svg>
